<svg width="4211" height="743" viewBox="0 0 4211 743" fill="none" xmlns="http://www.w3.org/2000/svg">
<path d="M1027.96 81.1484C656.547 -71.1945 0 81.1484 0 81.1484V254.662C0 254.662 571.565 -16.8556 941.934 138.014C1151.83 225.783 1319.49 374.337 1529.55 461.712C1895.48 613.917 2150.58 588.045 2518.14 439.841C2733.04 353.192 2863.81 229.727 3076.6 138.014C3507.48 -47.702 4208.08 254.662 4208.08 254.662V81.1484C4208.08 81.1484 3438.83 -101.435 3006.61 81.1484C2794.93 170.567 2731.83 251.814 2518.14 336.315C2149.59 482.056 1896.5 516.661 1529.55 366.936C1320.71 281.724 1236.64 166.743 1027.96 81.1484Z" fill="#FAEBD5"/>
<path d="M1030.88 146.257C659.463 -6.08608 2.91626 146.257 2.91626 146.257V319.77C2.91626 319.77 574.482 48.2528 944.85 203.122C1154.75 290.891 1322.4 439.446 1532.47 526.821C1898.39 679.026 2153.49 653.153 2521.06 504.949C2735.96 418.3 2866.72 294.835 3079.51 203.122C3510.4 17.4064 4211 319.77 4211 319.77V146.257C4211 146.257 3441.75 -36.3271 3009.52 146.257C2797.85 235.676 2734.75 316.922 2521.06 401.424C2152.51 547.165 1899.41 581.769 1532.47 432.044C1323.63 346.832 1239.56 231.851 1030.88 146.257Z" fill="#F7A64B"/>
<path d="M1030.88 210.413C659.463 58.0704 2.91626 210.413 2.91626 210.413V383.927C2.91626 383.927 574.482 112.409 944.85 267.278C1154.75 355.048 1322.4 503.602 1532.47 590.977C1898.39 743.182 2153.49 717.31 2521.06 569.106C2735.96 482.457 2866.72 358.992 3079.51 267.278C3510.4 81.5629 4211 383.927 4211 383.927V210.413C4211 210.413 3441.75 27.8294 3009.52 210.413C2797.85 299.832 2734.75 381.079 2521.06 465.58C2152.51 611.321 1899.41 645.926 1532.47 496.201C1323.63 410.989 1239.56 296.008 1030.88 210.413Z" fill="#D87432"/>
<path d="M1030.88 259.989C659.463 107.646 2.91626 259.989 2.91626 259.989V433.502C2.91626 433.502 574.482 161.985 944.85 316.854C1154.75 404.623 1322.4 553.178 1532.47 640.553C1898.39 792.758 2153.49 766.885 2521.06 618.681C2735.96 532.032 2866.72 408.567 3079.51 316.854C3510.4 131.138 4211 433.502 4211 433.502V259.989C4211 259.989 3441.75 77.4049 3009.52 259.989C2797.85 349.408 2734.75 430.654 2521.06 515.156C2152.51 660.897 1899.41 695.501 1532.47 545.776C1323.63 460.564 1239.56 345.583 1030.88 259.989Z" fill="#CD5452"/>
</svg>
