<svg width="4205" height="926" viewBox="0 0 4205 926" fill="none" xmlns="http://www.w3.org/2000/svg">
<path d="M1197.5 172C738.036 84.8703 0 172 0 172V39.9999C0 39.9999 738.503 -49.5602 1197.5 39.9999C1633.64 125.1 1824.14 352.844 2256 457.5C2995.72 636.762 4205 457.5 4205 457.5V576C4205 576 2996.9 750.318 2256 576C1825.3 474.667 1632.21 254.435 1197.5 172Z" fill="#FACFAE"/>
<path d="M1197.5 443.805C738.036 356.675 0 443.805 0 443.805V311.805C0 311.805 738.503 222.244 1197.5 311.805C1633.64 396.904 1824.14 624.648 2256 729.305C2995.72 908.567 4205 729.305 4205 729.305V847.805C4205 847.805 2996.9 1022.12 2256 847.805C1825.3 746.471 1632.21 526.239 1197.5 443.805Z" fill="#5E8D82"/>
<path d="M1197.5 371.805C738.036 284.675 0 371.805 0 371.805V239.805C0 239.805 738.503 150.244 1197.5 239.805C1633.64 324.904 1824.14 552.648 2256 657.305C2995.72 836.567 4205 657.305 4205 657.305V775.805C4205 775.805 2996.9 950.123 2256 775.805C1825.3 674.471 1632.21 454.239 1197.5 371.805Z" fill="#8FBCA3"/>
<path d="M1197.5 276.805C738.036 189.675 0 276.805 0 276.805V144.805C0 144.805 738.503 55.2444 1197.5 144.805C1633.64 229.904 1824.14 457.648 2256 562.305C2995.72 741.567 4205 562.305 4205 562.305V680.805C4205 680.805 2996.9 855.123 2256 680.805C1825.3 579.471 1632.21 359.239 1197.5 276.805Z" fill="#F9E8C9"/>
</svg>
