<svg width="4211" height="1057" viewBox="0 0 4211 1057" fill="none" xmlns="http://www.w3.org/2000/svg">
<path d="M880.417 72.9611C524.162 -29.2431 0 5.79827 0 5.79827V72.9611C0 72.9611 527.082 32.0794 880.417 144.504C1233.75 256.929 1528.68 486.158 1899.54 486.158C2270.39 486.158 2984.36 395.635 3349.38 486.158C3714.39 576.682 4210.81 870.154 4210.81 870.154V715.388C4210.81 715.388 3823.9 418.995 3349.38 325.552C2874.86 232.108 2165.27 400.015 1816.32 400.015C1467.36 400.015 1236.67 175.165 880.417 72.9611Z" fill="#FACFAE"/>
<path d="M880.417 134.242C524.162 32.0376 0 67.0789 0 67.0789V134.242C0 134.242 527.082 93.3601 880.417 205.785C1233.75 318.209 1528.68 547.439 1899.54 547.439C2270.39 547.439 2984.36 456.915 3349.38 547.439C3714.39 637.963 4210.81 931.435 4210.81 931.435V776.668C4210.81 776.668 3823.9 480.276 3349.38 386.832C2874.86 293.388 2165.27 461.295 1816.32 461.295C1467.36 461.295 1236.67 236.446 880.417 134.242Z" fill="#F9E8C9"/>
<path d="M880.417 195.564C524.162 93.3601 0 128.401 0 128.401V195.564C0 195.564 527.082 154.683 880.417 267.107C1233.75 379.532 1528.68 608.762 1899.54 608.762C2270.39 608.762 2984.36 518.238 3349.38 608.762C3714.39 699.285 4210.81 992.757 4210.81 992.757V837.991C4210.81 837.991 3823.9 541.599 3349.38 448.155C2874.86 354.711 2165.27 522.618 1816.32 522.618C1467.36 522.618 1236.67 297.769 880.417 195.564Z" fill="#8FBCA3"/>
<path d="M880.417 259.807C524.162 157.603 0 192.644 0 192.644V259.807C0 259.807 527.082 218.925 880.417 331.35C1233.75 443.775 1528.68 673.004 1899.54 673.004C2270.39 673.004 2984.36 582.48 3349.38 673.004C3714.39 763.528 4210.81 1057 4210.81 1057V902.234C4210.81 902.234 3823.9 605.841 3349.38 512.397C2874.86 418.953 2165.27 586.861 1816.32 586.861C1467.36 586.861 1236.67 362.011 880.417 259.807Z" fill="#5E8D82"/>
</svg>
