<svg width="4140" height="282" viewBox="0 0 4140 282" fill="none" xmlns="http://www.w3.org/2000/svg">
<rect x="40" y="22" width="4079" height="235" fill="#D87432"/>
<path d="M0 114.81V0H4140V114.81C4140 114.81 2487 207.488 2070 114.81C1653 22.132 0 114.81 0 114.81Z" fill="#CD5452"/>
<path d="M0 154.888V71.8884C0 71.8884 1009.5 33.8892 1632 71.8889C2254.5 109.889 4140 71.8884 4140 71.8884V154.888C4140 154.888 2487 221.888 2070 154.888C1653 87.8885 0 154.888 0 154.888Z" fill="#D87432"/>
<path d="M0 198.888V115.888C0 115.888 1009.5 77.8892 1632 115.889C2254.5 153.889 4140 115.888 4140 115.888V198.888C4140 198.888 2487 265.888 2070 198.888C1653 131.888 0 198.888 0 198.888Z" fill="#F7A64B"/>
<path d="M3509 203C3893.5 89 4140 203 4140 203V282L3302.48 282L2754.65 282L2063.48 282L1213.43 282L0 282V174.099C0 174.099 739.024 248.102 1213.43 237.541C1546.24 230.131 1730.64 168.427 2063.48 174.099C2334.51 178.717 2483.67 260.44 2754.65 254C2969.97 248.883 3302.51 264.222 3509 203Z" fill="#FAEBD5"/>
</svg>
