<svg width="4210" height="743" viewBox="0 0 4210 743" fill="none" xmlns="http://www.w3.org/2000/svg">
<path d="M1028.96 81.1484C657.547 -71.1945 1 81.1484 1 81.1484V254.662C1 254.662 572.565 -16.8556 942.934 138.014C1152.83 225.783 1320.49 374.337 1530.55 461.712C1896.48 613.917 2151.58 588.045 2519.14 439.841C2734.04 353.192 2864.81 229.727 3077.6 138.014C3508.48 -47.702 4209.08 254.662 4209.08 254.662V81.1484C4209.08 81.1484 3439.83 -101.435 3007.61 81.1484C2795.93 170.567 2732.83 251.814 2519.14 336.315C2150.59 482.056 1897.5 516.661 1530.55 366.936C1321.71 281.724 1237.64 166.743 1028.96 81.1484Z" fill="#FACFAE"/>
<path d="M1028.88 146.257C657.463 -6.08608 0.916016 146.257 0.916016 146.257V319.77C0.916016 319.77 572.481 48.2528 942.85 203.122C1152.75 290.891 1320.4 439.446 1530.47 526.821C1896.39 679.026 2151.49 653.153 2519.06 504.949C2733.96 418.3 2864.72 294.835 3077.51 203.122C3508.4 17.4064 4209 319.77 4209 319.77V146.257C4209 146.257 3439.75 -36.3271 3007.52 146.257C2795.85 235.676 2732.75 316.922 2519.06 401.424C2150.51 547.165 1897.41 581.769 1530.47 432.044C1321.63 346.832 1237.56 231.851 1028.88 146.257Z" fill="#F9E8C9"/>
<path d="M1028.88 210.413C657.463 58.0702 0.916016 210.413 0.916016 210.413V383.926C0.916016 383.926 572.481 112.409 942.85 267.278C1152.75 355.047 1320.4 503.602 1530.47 590.977C1896.39 743.182 2151.49 717.309 2519.06 569.105C2733.96 482.457 2864.72 358.992 3077.51 267.278C3508.4 81.5626 4209 383.926 4209 383.926V210.413C4209 210.413 3439.75 27.8292 3007.52 210.413C2795.85 299.832 2732.75 381.078 2519.06 465.58C2150.51 611.321 1897.41 645.926 1530.47 496.2C1321.63 410.989 1237.56 296.007 1028.88 210.413Z" fill="#8FBCA3"/>
<path d="M1028.88 259.989C657.463 107.646 0.916016 259.989 0.916016 259.989V433.503C0.916016 433.503 572.481 161.985 942.85 316.854C1152.75 404.624 1320.4 553.178 1530.47 640.553C1896.39 792.758 2151.49 766.886 2519.06 618.682C2733.96 532.033 2864.72 408.568 3077.51 316.854C3508.4 131.139 4209 433.503 4209 433.503V259.989C4209 259.989 3439.75 77.4054 3007.52 259.989C2795.85 349.408 2732.75 430.655 2519.06 515.156C2150.51 660.897 1897.41 695.502 1530.47 545.776C1321.63 460.565 1237.56 345.584 1028.88 259.989Z" fill="#5E8D82"/>
</svg>
