<svg width="661" height="661" viewBox="0 0 661 661" fill="none" xmlns="http://www.w3.org/2000/svg">
<circle cx="330.5" cy="330.5" r="330.5" fill="#0096C7"/>
<path d="M238.332 506H175.637V245.258H238.332V506ZM242.434 190.766H170.949V129.242H242.434V190.766ZM522.676 506H459.98V344.281C459.98 323.188 455.293 306.781 445.918 295.062C436.543 282.953 423.652 276.898 407.246 276.898C389.668 276.898 375.215 283.93 363.887 297.992C352.949 312.055 347.48 330.805 347.48 354.242V506H284.785V245.258H347.48V278.07C357.246 263.617 368.379 253.461 380.879 247.602C393.77 241.352 410.371 238.227 430.684 238.227C461.152 238.227 484.004 246.43 499.238 262.836C514.863 279.242 522.676 301.898 522.676 330.805V506Z" fill="white"/>
</svg>
