<svg width="661" height="661" viewBox="0 0 661 661" fill="none" xmlns="http://www.w3.org/2000/svg">
<circle cx="330.5" cy="330.5" r="330.5" fill="#000B0F"/>
<ellipse cx="330.5" cy="228" rx="187.5" ry="146" fill="white"/>
<ellipse cx="330.5" cy="495.5" rx="95.5" ry="165.5" fill="white"/>
<path d="M192.5 443.5C214.887 452.328 238.5 484.5 238.5 484.5V523.5C238.5 523.5 217.487 481.897 192.5 471C169.054 460.775 151.218 479.234 127 471C101.102 462.194 76.4752 454.064 72.5004 427C71.6492 421.204 70.9264 418.709 75.0001 414.5C79.2095 410.15 82.0202 411.063 88.0004 412C107.343 415.029 108.868 436.118 127 443.5C150.692 453.145 168.704 434.116 192.5 443.5Z" fill="white"/>
<path d="M209.119 52C209.119 52 177.351 127.071 209.119 143C237.689 157.326 276.782 137.512 282.119 106C288.041 71.0376 209.119 52 209.119 52Z" fill="white"/>
<path d="M457.878 53.261C457.878 53.261 378.84 73.2073 385.298 108.153C391.106 139.582 430.49 158.809 458.843 144.058C490.301 127.691 457.878 53.261 457.878 53.261Z" fill="white"/>
</svg>
